<?xml version="1.0" encoding="UTF-8"?>
<svg id="Layer_1" data-name="Layer 1" xmlns="http://www.w3.org/2000/svg" viewBox="0 0 500 500">
  <defs>
    <style>
      .cls-1 {
        fill: #262824;
      }

      .cls-1, .cls-2 {
        stroke-width: 0px;
      }

      .cls-2 {
        fill: #84c441;
      }
    </style>
  </defs>
  <polygon class="cls-1" points="167.77 305.04 198.24 286.98 198.24 327.55 163.26 327.55 163.26 307.71 167.77 305.04"/>
  <polygon class="cls-1" points="230.49 267.85 245.77 276.4 245.77 327.55 210.78 327.55 210.78 279.53 230.49 267.85"/>
  <polygon class="cls-1" points="270.84 276.48 293.05 257.23 293.05 327.55 258.07 327.55 258.07 283.28 261.06 284.96 270.84 276.48"/>
  <polygon class="cls-1" points="340.95 247.06 340.95 327.55 305.97 327.55 305.97 246.02 325.28 229.28 340.95 247.06"/>
  <g>
    <polygon class="cls-2" points="350 172.45 337.73 207.05 335.58 213.11 330.25 207.05 327.02 203.39 322.8 207.05 305.97 221.64 293.05 232.85 258.77 262.58 258.07 262.18 245.77 255.29 230.22 246.59 210.78 258.12 198.24 265.55 163.26 286.3 158.37 289.19 150 275.51 163.26 266.95 179.48 256.46 210.78 236.24 227.16 225.65 229.51 225.65 245.77 235.93 257.25 243.18 258.07 242.47 277.3 225.65 316.52 191.38 306.29 179.68 350 172.45"/>
    <polygon class="cls-2" points="228.33 224.9 229.51 225.65 227.16 225.65 228.33 224.9"/>
  </g>
</svg>