<?xml version="1.0" encoding="UTF-8"?>
<svg id="Layer_1" data-name="Layer 1" xmlns="http://www.w3.org/2000/svg" viewBox="0 0 500 500">
  <defs>
    <style>
      .cls-1 {
        fill: #262824;
      }

      .cls-1, .cls-2 {
        stroke-width: 0px;
      }

      .cls-2 {
        fill: #84c441;
      }
    </style>
  </defs>
  <path class="cls-1" d="M350,129.85c-.07,13.46-1.56,26.04-4.11,37.75l-31.97-26.13c20.99-9.77,36.08-11.62,36.08-11.62Z"/>
  <path class="cls-1" d="M308.46,144.13c-22.53,11.46-50.44,31.84-73.73,67.78-7.91,12.23-15.31,26.26-21.78,42.34-1.25,3.12-2.48,6.34-3.65,9.62l38.62,30.78s3.38-1.71,8.91-5.18c8.21-5.14,21.15-14.21,34.83-27.42,20.55-19.87,42.75-49.1,52.81-88.51l-36.01-29.42ZM305.47,199.22c-8.43,0-15.26-6.83-15.26-15.26s6.83-15.28,15.26-15.28,15.28,6.83,15.28,15.28-6.85,15.26-15.28,15.26Z"/>
  <path class="cls-1" d="M228.31,211.75c-8.19,13.04-15.77,28.02-22.31,45.21l-36.21,14.08,34.1-59.9,24.42.61Z"/>
  <path class="cls-1" d="M301.83,289.24l-53.07,47.74,6.85-40.31c7.22-4.24,21.08-13.22,36.34-27.32.59-.55,1.19-1.1,1.8-1.69l8.08,21.58Z"/>
  <path class="cls-2" d="M169.17,292.65c13.53-13.53,35.47-13.53,48.99,0s13.53,35.47,0,49c0,0-9.28,12.2-31.42,11.85-22.14-.35-35.18,16.65-35.18,16.65,0,0-6.98-25.37,8.53-44.41,1.5-1.85,3.23-3.65,5.19-5.36,0,0-2.79-1.13-6.17-.58-2.16.34-4.54,1.35-6.61,3.75,0,0,3.03-14.65,13.88-27.77.87-1.06,1.79-2.1,2.77-3.13Z"/>
</svg>