<?xml version="1.0" encoding="UTF-8"?>
<svg id="Layer_1" data-name="Layer 1" xmlns="http://www.w3.org/2000/svg" viewBox="0 0 1000 260.43">
  <defs>
    <style>
      .cls-1 {
        fill: #262824;
      }

      .cls-1, .cls-2 {
        stroke-width: 0px;
      }

      .cls-2 {
        fill: #84c441;
      }
    </style>
  </defs>
  <path class="cls-1" d="M151.91,85.31v90.63h-20.65l-36-49.18v49.18h-24.2v-90.63h21.85l34.8,47.55v-47.55h24.2Z"/>
  <path class="cls-1" d="M367,107.79h-24.62v68.15h-25.08v-68.15h-24.62v-22.48h74.32v22.48Z"/>
  <g>
    <path class="cls-1" d="M398.42,151.18c5.06,2.67,13.24,5.45,21.58,5.45,7.62,0,11.39-2.8,11.39-7.24,0-4.21-3.74-6.68-13.15-10.08-14.02-5.25-23.37-13.43-23.37-26.51,0-15.55,12.41-27.49,33.43-27.49,9.94,0,17.04,1.96,22.51,4.5l-4.66,18.81c-3.58-1.66-9.75-4.17-18.09-4.17-6.79,0-10.53,2.64-10.53,6.49,0,4.47,4.41,6.26,14.91,10.4,15,5.8,21.7,14.28,21.7,26.51,0,15.19-11.18,28.11-35.47,28.11-10.03,0-19.76-2.77-24.48-5.35l4.23-19.43Z"/>
    <path class="cls-1" d="M518.42,139.14h-29.91v16.21h33.43v19.24h-55.72v-87.91h53.99v19.24h-31.7v14.18h29.91v19.04Z"/>
    <path class="cls-1" d="M534.38,87.89c6.3-1.04,15.74-1.89,26.89-1.89,12.75,0,21.89,1.86,28.15,6.85,5.34,4.3,8.21,10.56,8.21,19.17,0,10.96-7.78,18.75-14.26,21.26v.46c5.53,2.51,8.52,8.12,10.65,15.75,2.5,8.93,5.25,21.72,6.85,25.11h-22.78c-1.27-2.54-3.43-9.42-5.83-20.25-2.25-10.53-5.31-12.72-12.19-12.72h-3.61v32.97h-22.07v-86.7ZM556.45,124.73h5.8c8.4,0,13.24-4.34,13.24-10.92s-4.11-10.34-11.51-10.4c-4.2,0-6.42.23-7.53.52v20.8Z"/>
    <path class="cls-1" d="M628.9,174.59l-26.46-87.91h24.48l8.83,34.56c2.62,9.85,4.91,19.47,6.92,30.75h.25c2.01-10.73,4.38-20.9,6.82-30.36l9.05-34.95h23.71l-27.23,87.91h-26.36Z"/>
    <path class="cls-1" d="M713.86,86.68v87.91h-22.29v-87.91h22.29Z"/>
    <path class="cls-1" d="M791.53,172.34c-3.15,1.63-10.99,3.62-20.96,3.62-31.15,0-44.82-20.48-44.82-43.89,0-31.01,21.52-46.76,46.34-46.76,9.57,0,17.35,1.89,20.81,3.91l-4.35,18.52c-3.61-1.6-8.77-3.16-15.4-3.16-12.81,0-23.89,7.99-23.89,25.99,0,15.95,9.01,25.86,24.3,25.86,5.4,0,11.45-1.11,14.91-2.51l3.09,18.42Z"/>
    <path class="cls-1" d="M855.77,139.14h-29.91v16.21h33.43v19.24h-55.72v-87.91h53.99v19.24h-31.7v14.18h29.91v19.04Z"/>
    <path class="cls-1" d="M873.22,151.18c5.06,2.67,13.24,5.45,21.58,5.45,7.62,0,11.39-2.8,11.39-7.24,0-4.21-3.74-6.68-13.15-10.08-14.02-5.25-23.37-13.43-23.37-26.51,0-15.55,12.41-27.49,33.43-27.49,9.94,0,17.04,1.96,22.51,4.5l-4.66,18.81c-3.58-1.66-9.75-4.17-18.09-4.17-6.79,0-10.53,2.64-10.53,6.49,0,4.47,4.41,6.26,14.91,10.4,15,5.8,21.7,14.28,21.7,26.51,0,15.19-11.18,28.11-35.47,28.11-10.03,0-19.76-2.77-24.48-5.35l4.23-19.43Z"/>
  </g>
  <polygon class="cls-1" points="217.8 103.54 217.8 103.55 216.53 105.54 203.61 125.79 203.58 125.82 178.29 85.46 206.46 85.46 217.8 103.54"/>
  <polygon class="cls-1" points="263.25 176.09 235.19 176.09 223.46 157.39 224.73 155.4 237.62 135.19 237.65 135.15 256.19 164.69 263.25 176.09"/>
  <polygon class="cls-1" points="217.8 103.54 217.8 103.55 216.53 105.54 203.61 125.79 178.29 85.46 206.46 85.46 217.8 103.54"/>
  <polygon class="cls-1" points="263.25 176.09 235.19 176.09 223.45 157.4 223.46 157.39 224.73 155.4 237.62 135.19 263.25 176.09"/>
  <polygon class="cls-2" points="267.83 57.36 265.05 105.97 254.69 99.16 237.92 125.43 235.48 129.25 234.68 130.5 220.51 152.71 205.58 176.11 177.42 176.11 177.43 176.09 176.77 176.09 191.51 154.04 191.52 154.01 191.74 153.67 206.52 130.51 206.55 130.47 220.74 108.25 220.75 108.23 232.42 89.94 234.84 86.15 224.33 79.25 267.83 57.36"/>
</svg>