<?xml version="1.0" encoding="UTF-8"?>
<svg id="Layer_1" data-name="Layer 1" xmlns="http://www.w3.org/2000/svg" viewBox="0 0 500 500">
  <defs>
    <style>
      .cls-1 {
        fill: #262824;
      }

      .cls-1, .cls-2, .cls-3 {
        stroke-width: 0px;
      }

      .cls-2 {
        fill: none;
      }

      .cls-3 {
        fill: #84c441;
      }
    </style>
  </defs>
  <path class="cls-1" d="M229.02,341.18c-18.71-3.96-35.89-13.25-49.73-27.09-18.89-18.89-29.29-44-29.29-70.71,0-13.32,2.58-26.23,7.52-38.17.23-.58.47-1.14.73-1.7.24-.56.49-1.12.74-1.68l-7.66-6.98c-2.26-2.07-1.44-5.81,1.48-6.74l17.91-5.7,31.38-9.98c.41-.13.82-.19,1.22-.19,2.42,0,4.43,2.26,3.87,4.83l-3.44,15.76-7.62,34.78c-.43,1.96-2.14,3.13-3.91,3.13-.94,0-1.88-.33-2.67-1.04l-5.51-5.02c-.17.64-.34,1.28-.5,1.91-.17.64-.32,1.29-.45,1.93-1.07,4.78-1.63,9.76-1.63,14.86,0,28.71,17.65,53.3,42.69,63.48l-11.98,3.81c-2.57.82-4.46,2.89-5.04,5.53-.58,2.64.27,5.31,2.27,7.13l19.59,17.85Z"/>
  <path class="cls-2" d="M210.61,177.81l-2.47,11.32c-.74.56-1.47,1.15-2.18,1.75-.75.63-1.49,1.27-2.2,1.93l3.44-15.76c.56-2.57-1.45-4.83-3.87-4.83-.4,0-.81.06-1.22.19l-31.38,9.98c.64-.83,1.29-1.64,1.96-2.46.7-.85,1.41-1.69,2.15-2.52l26.2-8.34c.75-.24,1.51-.36,2.29-.36,2.26,0,4.38,1.02,5.81,2.8,1.43,1.77,1.96,4.06,1.47,6.29Z"/>
  <path class="cls-1" d="M350,243.38c0,26.71-10.4,51.82-29.29,70.71-15.9,15.9-36.21,25.78-58.17,28.51-.6.08-1.22.15-1.83.21-.61.07-1.22.13-1.84.17l-2.3,10.51c-.43,1.96-2.13,3.13-3.9,3.13-.94,0-1.88-.33-2.67-1.04l-14.53-13.25h0l-23.69-21.6c-2.26-2.07-1.44-5.81,1.48-6.74l16.31-5.19,32.98-10.49c.41-.13.82-.19,1.22-.19,2.43,0,4.44,2.26,3.87,4.83l-1.54,7.03c.64-.14,1.27-.31,1.9-.48h0c.64-.17,1.27-.35,1.9-.54,28.14-8.52,48.62-34.67,48.62-65.59,0-2.81-.17-5.57-.5-8.28l8.84,7.75c1.36,1.2,3.11,1.85,4.91,1.85,3.57,0,6.65-2.53,7.35-6.02l5.5-27.74c3.54,10.3,5.37,21.23,5.37,32.45Z"/>
  <path class="cls-2" d="M235.47,342.34c-1.06-.16-2.11-.32-3.16-.52-1.1-.19-2.2-.4-3.3-.65l-19.59-17.85c-2-1.82-2.85-4.49-2.27-7.13.58-2.64,2.47-4.7,5.04-5.53l11.98-3.81c.87.36,1.73.7,2.61,1.01.92.34,1.84.65,2.79.94l-16.31,5.19c-2.92.93-3.74,4.67-1.48,6.74l23.69,21.6Z"/>
  <path class="cls-3" d="M345.77,187.25l-3.47,17.5-6.6,33.23c-.39,2-2.12,3.21-3.92,3.21-.91,0-1.84-.31-2.61-.99l-12.02-10.53-26.89-23.56c-2.31-2.02-1.57-5.77,1.34-6.76l8.38-2.85c-.43-.47-.87-.94-1.34-1.39-.45-.47-.92-.93-1.4-1.37-12.29-11.72-28.92-18.9-47.25-18.9-15.76,0-30.29,5.32-41.86,14.29l2.47-11.32c.49-2.23-.04-4.52-1.47-6.29-1.43-1.77-3.55-2.8-5.81-2.8-.78,0-1.54.12-2.29.36l-26.2,8.34c1.43-1.63,2.91-3.22,4.46-4.77,18.89-18.89,44-29.29,70.71-29.29s51.83,10.4,70.71,29.29c3.2,3.2,6.16,6.57,8.85,10.11.38.49.74.97,1.1,1.47.37.49.72.98,1.07,1.48l8.86-3.01c.44-.15.87-.21,1.29-.21,2.4,0,4.4,2.2,3.89,4.76Z"/>
  <path class="cls-2" d="M344.63,210.93l-5.5,27.74c-.7,3.5-3.79,6.02-7.35,6.02-1.8,0-3.55-.66-4.91-1.85l-8.84-7.75c-.1-.88-.23-1.77-.37-2.64-.15-.93-.31-1.85-.51-2.77l12.02,10.53c.77.68,1.7.99,2.61.99,1.79,0,3.52-1.21,3.92-3.21l6.6-33.23c.41.99.81,1.98,1.19,2.98.41,1.06.79,2.12,1.15,3.19Z"/>
</svg>